<svg width="126" height="76" viewBox="0 0 126 76" fill="none" xmlns="http://www.w3.org/2000/svg">
<mask id="mask0_151_410" style="mask-type:alpha" maskUnits="userSpaceOnUse" x="0" y="0" width="126" height="76">
<path d="M9.90351 41.7434C10.3532 43.108 11.5937 43.4337 12.5241 44.1625C20.2154 50.179 27.9376 56.149 35.6444 62.1655C41.7384 66.926 45.6461 67.0346 51.9107 62.5532C53.787 61.5918 54.4693 59.7 54.981 57.6997C55.7098 56.9088 56.5627 56.5677 57.5086 57.0639C58.7956 57.7307 60.0361 57.5601 61.2456 56.9088C61.8969 56.5522 62.5327 56.3196 63.1374 56.9088C63.8817 57.6221 63.5561 58.568 63.3545 59.3743C62.7343 61.7468 61.6798 63.9333 60.8735 66.2283C55.074 76.2765 42.2501 79.0056 33.0082 72.0742C28.7284 68.8644 24.5417 65.5305 20.3084 62.2431C16.4783 59.2658 12.6947 56.2265 8.83356 53.3113C5.91833 51.1094 3.14267 48.8144 1.71606 45.0618C1.52999 44.6897 1.68505 44.271 1.63853 43.8833C1.561 43.1855 1.34391 42.4102 2.0417 41.9295C2.755 41.4333 3.31324 41.852 3.84046 42.3947C4.42971 42.984 5.14301 43.17 5.90283 42.984C7.22088 42.6583 8.10475 43.2631 8.66299 44.5191C8.94211 45.1549 9.42281 45.3565 9.96554 45.527C8.75603 45.2944 8.30634 44.1935 8.01172 43.1545C7.70159 42.0846 8.53894 41.5108 9.90351 41.7434Z" fill="url(#paint0_linear_151_410)"/>
<path d="M61.2305 20.4832C62.0058 4.09281 79.4662 -5.64529 92.0575 3.55009C101.253 10.2644 110.107 17.5835 119.101 24.639C119.504 24.9491 119.814 25.3833 120.171 25.7554C118.155 27.3371 115.922 27.4611 113.906 26.1121C111.022 24.1738 108.169 24.9956 105.254 25.5849C99.7642 21.3516 94.2749 17.1028 88.7701 12.916C81.8076 7.6128 73.6512 10.3419 70.5034 18.9946C70.4103 19.2427 70.2708 19.4753 70.1622 19.7079C68.6581 18.6224 68.6736 18.0332 70.5034 14.9009C69.7281 15.4436 69.1543 15.6762 68.5651 15.8157C67.8518 15.9863 67.5261 16.7151 67.0144 17.1648C66.5492 17.568 66.022 17.7075 65.4638 17.537C64.0061 17.0718 63.2928 17.8471 62.9207 19.3047C62.6881 20.2041 62.3314 20.9794 61.2615 20.4832H61.2305Z" fill="url(#paint1_linear_151_410)"/>
<path d="M106.357 62.9398C101.938 66.5373 97.627 70.2899 93.0836 73.6703C87.9509 77.4849 81.066 76.477 76.6001 71.6545C72.3824 67.08 71.3124 59.6989 74.1191 54.3802C74.7859 54.1166 75.034 53.4343 75.4061 52.8761C76.0109 51.9302 76.7087 51.2789 77.8562 51.6045C78.3524 51.7441 78.8021 51.6045 79.2517 51.2789C81.4537 49.6972 84.7566 50.7517 85.7955 53.3257C86.0746 54.039 85.7335 54.4887 85.3303 54.9229C83.9037 54.9229 83.1129 55.8068 82.6942 57.2334C81.066 60.0556 81.2211 62.8467 83.1284 64.8006C84.9271 66.6614 87.1756 66.5993 89.6566 64.6145C93.3782 61.6372 97.1153 58.66 100.837 55.6672C101.907 55.078 102.62 55.5277 102.496 56.7527C102.403 57.7451 102.729 57.9467 103.364 58.3654C104.341 59.0321 105.272 59.8385 106.063 60.7999C106.574 61.4357 106.993 62.1024 106.357 62.9398Z" fill="url(#paint2_linear_151_410)"/>
<path d="M41.9579 19.6155C43.6015 17.8478 44.6405 15.8784 43.7101 13.2423C42.5936 10.079 39.3683 8.90051 36.7011 10.8078C34.7473 12.2034 32.8865 13.7696 30.9792 15.2737C29.7232 14.6999 28.5447 14.1417 27.1646 15.1186C26.4668 15.6148 25.4899 15.3047 24.6836 14.8395C23.257 14.0022 23.1329 13.2423 24.2339 11.6141C23.7997 11.9088 23.5361 12.2809 23.4431 12.7771C23.195 14.1727 22.4196 14.6379 21.3187 14.0022C20.0471 13.2733 20.838 12.3275 21.2876 11.4746C25.0557 8.09417 28.8859 4.79128 33.0106 2.0001C38.0657 -1.41133 44.78 -0.310377 48.9978 4.29506C53.0605 8.71442 54.208 15.7544 51.7425 20.9801C49.8662 21.0111 48.176 22.019 46.3152 22.1741C45.5709 22.2361 44.8111 22.3137 44.3304 21.4918C43.8962 20.763 44.0667 20.0807 44.687 19.3829C43.3069 21.2127 42.8727 21.2282 41.9579 19.631V19.6155Z" fill="url(#paint3_linear_151_410)"/>
<path d="M36.5936 38.0367C39.881 40.5488 43.2149 42.9833 46.4247 45.6194C48.3631 47.2011 48.6112 50.1008 47.2621 52.1786C45.8975 54.272 43.37 54.9543 41.3696 53.4347C35.3996 48.8758 29.4606 44.2548 23.5991 39.5408C21.4902 37.8506 22.033 35.9278 24.9947 33.9585C25.3048 33.7414 25.6925 33.6639 25.9561 33.3692C28.2356 30.8107 30.6081 31.71 33.1977 32.811C34.5002 33.3692 36.0199 32.4699 37.3224 31.7566C37.9737 31.3999 38.5164 30.7952 39.1832 30.4695C40.4547 29.8648 41.1525 30.361 41.3231 31.9271C40.2687 32.904 39.1987 33.8654 38.1443 34.8424C37.5395 34.9819 37.0743 35.4316 36.5626 35.7727C35.3376 36.5636 35.3531 37.3234 36.6246 38.0367H36.5936Z" fill="url(#paint4_linear_151_410)"/>
<path d="M85.3284 54.9225C84.9407 53.2013 82.6923 51.2475 81.1882 51.294C80.785 51.294 80.3353 51.3715 80.3353 51.8522C80.3818 53.62 79.5135 53.2788 78.5676 52.8912C77.2805 52.3484 76.164 52.4415 75.3732 53.8991C75.0786 54.4418 74.6599 54.6124 74.1172 54.3798C74.5824 52.6121 75.6213 51.2165 76.8463 50.131C81.0331 46.4094 85.2509 42.7034 89.6702 39.2919C90.0734 38.7802 89.8408 37.9429 90.399 37.5087C91.1279 36.9505 91.0968 36.2992 90.8487 35.3843C90.275 33.2444 91.376 32.0969 93.3143 32.7017C93.7174 32.8257 94.0741 33.1824 94.5083 32.8257C95.8728 31.7558 96.6947 32.4381 97.1444 33.9112C97.501 35.0587 98.3849 35.1672 99.1912 35.3223C100.525 35.5859 101.502 36.3302 102.293 37.5397C102.975 38.5941 103.006 39.54 102.293 40.5325C96.7257 45.4635 91.1279 50.3326 85.2974 54.8915L85.3284 54.9225Z" fill="url(#paint5_linear_151_410)"/>
<path d="M106.353 62.94C105.686 61.4824 104.446 60.645 103.422 59.5906C102.833 58.9858 102.229 58.9858 101.593 59.4976C101.205 59.8077 100.724 60.2419 100.321 59.5906C99.9956 59.0634 100.337 58.5517 100.662 58.1175C100.941 57.7453 101.267 57.4352 101.5 57.032C101.996 56.1792 101.608 55.7915 100.833 55.652C104.741 52.163 108.772 48.8911 112.928 45.7898C113.781 45.7123 114.308 44.9214 114.851 44.3942C116.712 42.5954 119.115 42.6885 121.255 41.9287C122.93 41.3394 124.279 43.1382 124.155 45.4952C123.426 47.9607 122.139 50.0541 120.309 51.5892C115.704 55.4349 111.005 59.1564 106.353 62.9245V62.94Z" fill="url(#paint6_linear_151_410)"/>
<path d="M9.90351 41.7418C9.34527 42.1295 8.55444 42.3931 8.80255 43.3545C9.00413 44.1298 9.60889 44.5485 10.3687 44.4555C11.2371 44.3469 11.5317 44.6571 11.1906 45.603C11.0975 45.8821 11.1595 46.1457 11.4231 46.2697C11.8418 46.4713 12.5861 46.5334 12.0279 47.2932C11.5782 47.9289 10.8959 47.8669 10.4307 47.2622C9.54686 46.0992 7.53101 46.2853 7.43797 44.1609C7.43797 44.0678 6.83322 43.8352 6.63163 43.9438C4.87939 44.8431 3.59235 44.0523 2.41386 42.3311C2.16575 43.4321 2.18126 44.3469 1.70056 45.0757C-1.15264 39.4624 -0.330802 31.3059 3.53032 26.6075C4.53825 25.7546 5.57719 24.9638 6.47657 23.9248C8.12026 22.0485 12.3535 21.5368 14.8811 22.7929C18.2925 24.4831 18.3546 24.9793 15.4238 27.91C14.664 28.5768 13.9352 29.2901 13.1444 29.9259C8.75603 33.4458 8.12026 35.7098 9.88801 41.7418H9.90351Z" fill="url(#paint7_linear_151_410)"/>
<path d="M124.173 45.5263C123.01 42.8747 122.452 42.5491 120.033 43.4175C118.001 44.1463 115.598 43.8051 114 45.8985C113.861 46.0691 113.303 45.8365 112.946 45.8055C113.814 44.6735 115.055 43.9757 115.737 42.6111C117.691 38.7345 116.668 34.5942 113.008 31.679C111.969 30.0198 110.356 29.2135 108.821 28.3141C107.534 27.5543 106.65 26.1897 105.27 25.5849C105.146 24.9027 105.224 24.4064 105.999 24.3134C108.821 24.0033 111.612 23.1039 114.311 25.1818C115.225 25.8796 116.885 27.1821 117.66 24.2049C118.079 25.8951 119.195 25.6315 120.172 25.771C125.367 30.485 127.181 39.4168 124.173 45.5263Z" fill="url(#paint8_linear_151_410)"/>
<path d="M61.229 20.4831C61.9733 19.9249 62.1594 19.01 62.1904 18.1572C62.2679 16.1878 63.3534 15.9087 64.7024 16.2964C65.8189 16.6065 66.6407 16.684 66.8888 15.1489C66.9044 15.0248 67.0284 14.8233 67.0904 14.8233C68.9977 14.9473 70.1142 13.6603 71.2927 12.2647C71.6804 11.815 72.2386 12.4663 71.9905 13.1175C71.5563 14.234 71.5563 15.5676 70.781 16.498C69.9902 17.4594 69.7886 18.4828 70.1452 19.6923C69.2769 25.6003 68.486 31.5238 67.23 37.3542C65.8654 37.0906 64.7489 37.4938 63.7875 38.6723C62.6246 40.1144 61.322 39.0289 59.9574 38.5948C59.9729 40.6416 59.2751 42.3939 59.1046 44.2857C58.996 45.5107 58.5308 46.4721 57.1973 45.4332C58.3603 37.0751 59.6783 28.7636 61.229 20.4831Z" fill="url(#paint9_linear_151_410)"/>
<path d="M57.1957 45.4332C57.5524 45.3557 58.1261 45.2006 58.0641 44.844C57.6919 42.7506 59.2581 40.9984 58.8549 38.936C58.7309 38.3312 58.6843 37.711 58.948 37.1527C59.1185 36.8116 59.3356 36.3774 59.6147 36.2534C60.0954 36.0363 60.1109 36.672 60.297 36.9667C61.398 38.6259 62.1733 38.7344 63.5534 37.4319C63.879 37.1217 64.2202 36.8426 64.5613 36.5635C66.2205 35.1214 66.267 35.1369 67.1974 37.3853C66.236 44.9991 65.0575 52.5662 63.5379 60.0714C63.0882 62.3199 62.1888 64.4442 60.8242 66.2585C60.8242 63.8395 62.3284 61.9322 62.6695 59.6062C62.747 59.0325 63.2277 58.4432 62.8401 57.885C62.3749 57.1872 61.8787 57.885 61.367 57.9935C59.7078 58.3657 58.0486 59.5752 56.3894 57.8695C56.1103 57.5904 55.4435 57.7609 54.9473 57.7299C55.6916 53.6362 56.4204 49.558 57.1647 45.4642L57.1957 45.4332Z" fill="url(#paint10_linear_151_410)"/>
<path d="M41.3049 31.9431C40.4521 30.7491 39.5837 31.2763 38.7464 31.9431C37.7074 32.7804 36.7305 33.6953 35.2884 33.5402C34.3735 33.4317 34.4045 34.207 34.4821 34.9513C34.5596 35.5871 34.5131 36.2849 33.7998 36.3779C33.1795 36.4555 32.9624 35.7732 32.9624 35.2615C32.9314 33.4162 32.1251 33.0285 30.683 33.6023C30.4659 33.6953 30.0317 33.7418 29.9852 33.6643C28.6206 30.625 27.3491 33.6178 26.0465 33.7263C25.6899 33.7573 25.3332 33.8969 24.9766 33.9899C30.4969 29.0123 36.1568 24.2363 41.9562 19.6309C42.623 20.0341 43.1812 19.879 43.8015 19.3673C44.7319 18.623 45.7708 18.0802 47.1819 18.1578C46.7632 19.1347 45.8639 18.778 45.4762 19.3363C45.1816 19.7704 44.7939 20.2046 44.9955 20.7784C45.2281 21.4607 45.8173 21.3056 46.267 21.1195C47.1509 20.7474 48.0193 20.6233 48.9497 20.7784C49.5079 20.8714 49.8801 20.5458 49.8025 19.817C49.7405 19.2277 49.0272 18.1888 50.4848 18.5144C51.3532 18.716 52.2836 18.778 51.5858 20.2201C51.5082 20.3907 51.6788 20.7163 51.7408 20.98C51.6013 21.2436 51.4617 21.4917 51.3377 21.7553C50.6089 22.0344 50.8725 22.8717 50.5623 23.399C48.1433 27.136 44.6699 29.4775 41.3049 31.9586V31.9431Z" fill="url(#paint11_linear_151_410)"/>
<path d="M102.322 40.5648C102.291 37.6031 101.019 35.9749 98.7089 36.2695C96.7861 36.5176 96.755 36.285 95.7936 33.0907C95.2199 33.5248 95.2354 34.4087 94.5841 34.7809C93.8553 35.184 93.2351 35.6958 93.018 34.2847C92.9249 33.6799 92.6613 33.1837 92.0256 33.5559C91.5604 33.8195 91.1727 34.5638 91.5138 34.9049C93.4987 36.9828 91.6534 37.572 90.4904 38.4714C90.1958 38.704 89.9477 39.0141 89.6686 39.2933C89.6996 38.4559 89.0018 38.1923 88.6451 37.6496C89.0483 37.2619 89.5755 36.9518 89.4205 36.1765C89.4825 35.9284 89.3119 36.0059 89.3119 36.0524C89.4515 36.9828 89.1258 37.479 88.2109 37.3084C85.0166 35.2306 82.0859 32.765 79.1241 30.315C77.2633 28.7798 76.9842 25.9266 78.2402 23.8953C79.6048 21.6934 82.1479 21.0111 84.2568 22.5617C88.0404 25.3529 91.7309 28.3146 95.4525 31.2144C97.6079 32.9046 99.7943 34.5793 101.903 36.3315C103.562 37.6961 103.624 38.8281 102.291 40.5493L102.322 40.5648Z" fill="url(#paint12_linear_151_410)"/>
<path d="M15.4268 27.9112C17.0085 25.027 16.6674 24.1431 13.566 23.4298C12.7287 23.2437 11.7673 22.3754 10.9299 23.6934C10.6043 24.2051 10.0306 23.5539 9.58087 23.5539C8.44889 23.5539 7.25489 22.9491 6.66564 24.996C6.35551 26.0659 4.57226 25.9729 3.54883 26.6087C4.02953 25.6163 4.75834 24.8719 5.53366 24.2362C10.7594 19.9564 16.0316 15.7231 21.2883 11.4743C21.9086 11.9085 20.6525 13.1645 21.9241 13.2886C22.9165 13.3816 22.8234 12.3582 23.1026 11.7689C23.8004 10.2803 25.1184 10.4354 26.2814 10.2958C26.6846 10.2493 27.0412 10.699 27.0567 11.2572C27.0567 11.7224 26.7931 11.986 26.4365 12.1566C26.3279 12.2031 26.2039 12.2186 26.0798 12.2651C25.4751 12.4512 24.6377 12.0946 24.3276 13.0094C24.1725 13.4591 24.6222 13.7072 24.9478 13.8778C25.7542 14.3275 26.5605 14.5446 27.3669 13.8933C29.1811 12.4202 29.8014 12.6683 30.9799 15.2734C25.8937 19.6307 20.7611 23.926 15.4268 27.9267V27.9112Z" fill="url(#paint13_linear_151_410)"/>
<path d="M88.2285 37.3232C88.6006 36.982 89.2519 36.5944 88.2285 36.3308C87.174 36.0671 87.081 35.2918 87.5152 34.532C87.9494 33.7411 88.7402 33.7411 89.4845 34.1288C90.477 34.656 90.3064 35.7105 90.3064 36.6254C90.3064 37.959 89.2209 37.3542 88.6472 37.6643C88.5076 37.5558 88.368 37.4473 88.213 37.3232H88.2285Z" fill="url(#paint14_linear_151_410)"/>
<path d="M82.7092 57.2189C82.7247 56.335 82.0423 55.327 82.9728 54.6136C83.7948 53.9778 84.5857 54.505 85.3611 54.9238C84.6012 55.8697 83.6707 56.5521 82.7247 57.2189H82.7092Z" fill="url(#paint15_linear_151_410)"/>
<path d="M108.799 28.3147C110.815 28.4853 112.303 29.4777 112.986 31.6798C111.559 30.6098 110.024 29.6949 108.799 28.3147Z" fill="url(#paint16_linear_151_410)"/>
<path d="M54.9806 57.6987C54.8255 60.397 53.7245 62.1338 51.9102 62.5525C53.1042 61.0638 54.1742 59.4821 54.9806 57.6987Z" fill="url(#paint17_linear_151_410)"/>
<path d="M36.5927 38.0379C35.8173 37.8673 35.4141 37.3711 35.4607 36.4716C35.5072 35.6032 36.1275 35.4016 36.7013 35.1844C37.1665 35.0139 37.6473 34.9518 38.1281 34.8433C37.6318 35.3085 37.151 35.8203 36.6083 36.2545C35.8328 36.8748 36.05 37.4331 36.6083 38.0379H36.5927Z" fill="url(#paint18_linear_151_410)"/>
<path d="M50.562 23.3835C50.655 22.4065 49.0268 23.6936 49.492 22.4375C49.7866 21.6002 50.5154 21.321 51.3373 21.7397C51.2753 22.4065 50.9807 22.9338 50.562 23.3835Z" fill="url(#paint19_linear_151_410)"/>
<path d="M31.7861 11.0708C32.4994 11.1483 32.7631 11.7376 32.9026 12.4044C32.9957 12.8541 32.8096 13.2728 32.3599 13.2108C31.6931 13.1023 31.0262 12.7921 30.9177 11.9547C30.8557 11.4275 31.3209 11.2104 31.7861 11.0708Z" fill="url(#paint20_linear_151_410)"/>
</mask>
<g mask="url(#mask0_151_410)">
<rect x="-1" y="-1.16431" width="127.154" height="77.5327" fill="white"/>
</g>
<defs>
<linearGradient id="paint0_linear_151_410" x1="33.99" y1="48.5005" x2="3.19569" y2="59.6221" gradientUnits="userSpaceOnUse">
<stop stop-color="#2AAB4E"/>
<stop offset="0.569476" stop-color="#3C88EE"/>
</linearGradient>
<linearGradient id="paint1_linear_151_410" x1="92.0461" y1="5.37861" x2="64.228" y2="17.4573" gradientUnits="userSpaceOnUse">
<stop stop-color="#2AAB4E"/>
<stop offset="0.569476" stop-color="#3C88EE"/>
</linearGradient>
<linearGradient id="paint2_linear_151_410" x1="90.3975" y1="55.5992" x2="72.5305" y2="60.3678" gradientUnits="userSpaceOnUse">
<stop stop-color="#2AAB4E"/>
<stop offset="0.569476" stop-color="#3C88EE"/>
</linearGradient>
<linearGradient id="paint3_linear_151_410" x1="37.5709" y1="4.42385" x2="20.8102" y2="9.29681" gradientUnits="userSpaceOnUse">
<stop stop-color="#2AAB4E"/>
<stop offset="0.569476" stop-color="#3C88EE"/>
</linearGradient>
<linearGradient id="paint4_linear_151_410" x1="35.8066" y1="35.0011" x2="21.9747" y2="37.9565" gradientUnits="userSpaceOnUse">
<stop stop-color="#2AAB4E"/>
<stop offset="0.569476" stop-color="#3C88EE"/>
</linearGradient>
<linearGradient id="paint5_linear_151_410" x1="89.1217" y1="36.8033" x2="73.9897" y2="40.6279" gradientUnits="userSpaceOnUse">
<stop stop-color="#2AAB4E"/>
<stop offset="0.569476" stop-color="#3C88EE"/>
</linearGradient>
<linearGradient id="paint6_linear_151_410" x1="112.723" y1="46.0178" x2="99.9293" y2="48.91" gradientUnits="userSpaceOnUse">
<stop stop-color="#2AAB4E"/>
<stop offset="0.569476" stop-color="#3C88EE"/>
</linearGradient>
<linearGradient id="paint7_linear_151_410" x1="9.16841" y1="27.2042" x2="-0.489298" y2="28.52" gradientUnits="userSpaceOnUse">
<stop stop-color="#2AAB4E"/>
<stop offset="0.569476" stop-color="#3C88EE"/>
</linearGradient>
<linearGradient id="paint8_linear_151_410" x1="115.891" y1="28.2497" x2="104.819" y2="30.2852" gradientUnits="userSpaceOnUse">
<stop stop-color="#2AAB4E"/>
<stop offset="0.569476" stop-color="#3C88EE"/>
</linearGradient>
<linearGradient id="paint9_linear_151_410" x1="64.9637" y1="18.8308" x2="56.6945" y2="19.5557" gradientUnits="userSpaceOnUse">
<stop stop-color="#2AAB4E"/>
<stop offset="0.569476" stop-color="#3C88EE"/>
</linearGradient>
<linearGradient id="paint10_linear_151_410" x1="61.352" y1="41.6763" x2="54.5234" y2="42.2193" gradientUnits="userSpaceOnUse">
<stop stop-color="#2AAB4E"/>
<stop offset="0.569476" stop-color="#3C88EE"/>
</linearGradient>
<linearGradient id="paint11_linear_151_410" x1="39.0164" y1="21.7773" x2="25.1465" y2="25.8463" gradientUnits="userSpaceOnUse">
<stop stop-color="#2AAB4E"/>
<stop offset="0.569476" stop-color="#3C88EE"/>
</linearGradient>
<linearGradient id="paint12_linear_151_410" x1="90.937" y1="25.4696" x2="77.4876" y2="29.1311" gradientUnits="userSpaceOnUse">
<stop stop-color="#2AAB4E"/>
<stop offset="0.569476" stop-color="#3C88EE"/>
</linearGradient>
<linearGradient id="paint13_linear_151_410" x1="17.8905" y1="13.8001" x2="3.85105" y2="18.1505" gradientUnits="userSpaceOnUse">
<stop stop-color="#2AAB4E"/>
<stop offset="0.569476" stop-color="#3C88EE"/>
</linearGradient>
<linearGradient id="paint14_linear_151_410" x1="88.8641" y1="34.6289" x2="87.1981" y2="34.8957" gradientUnits="userSpaceOnUse">
<stop stop-color="#2AAB4E"/>
<stop offset="0.569476" stop-color="#3C88EE"/>
</linearGradient>
<linearGradient id="paint15_linear_151_410" x1="83.9875" y1="54.8953" x2="82.4334" y2="55.2025" gradientUnits="userSpaceOnUse">
<stop stop-color="#2AAB4E"/>
<stop offset="0.569476" stop-color="#3C88EE"/>
</linearGradient>
<linearGradient id="paint16_linear_151_410" x1="110.988" y1="28.9841" x2="108.775" y2="29.5325" gradientUnits="userSpaceOnUse">
<stop stop-color="#2AAB4E"/>
<stop offset="0.569476" stop-color="#3C88EE"/>
</linearGradient>
<linearGradient id="paint17_linear_151_410" x1="53.5155" y1="58.6642" x2="51.82" y2="58.8779" gradientUnits="userSpaceOnUse">
<stop stop-color="#2AAB4E"/>
<stop offset="0.569476" stop-color="#3C88EE"/>
</linearGradient>
<linearGradient id="paint18_linear_151_410" x1="36.8535" y1="35.4787" x2="35.3956" y2="35.7215" gradientUnits="userSpaceOnUse">
<stop stop-color="#2AAB4E"/>
<stop offset="0.569476" stop-color="#3C88EE"/>
</linearGradient>
<linearGradient id="paint19_linear_151_410" x1="50.4168" y1="21.9126" x2="49.3801" y2="22.1296" gradientUnits="userSpaceOnUse">
<stop stop-color="#2AAB4E"/>
<stop offset="0.569476" stop-color="#3C88EE"/>
</linearGradient>
<linearGradient id="paint20_linear_151_410" x1="31.965" y1="11.4977" x2="30.8735" y2="11.7017" gradientUnits="userSpaceOnUse">
<stop stop-color="#2AAB4E"/>
<stop offset="0.569476" stop-color="#3C88EE"/>
</linearGradient>
</defs>
</svg>
