<svg width="190" height="34" viewBox="0 0 190 34" fill="none" xmlns="http://www.w3.org/2000/svg">
<g clip-path="url(#clip0_74_341)">
<g opacity="0.9">
<mask id="mask0_74_341" style="mask-type:alpha" maskUnits="userSpaceOnUse" x="0" y="0" width="54" height="33">
<path d="M4.86827 18.322C5.05883 18.9003 5.58452 19.0383 5.97879 19.3471C9.23808 21.8967 12.5105 24.4266 15.7764 26.9762C18.3588 28.9936 20.0148 29.0396 22.6695 27.1405C23.4646 26.7331 23.7538 25.9314 23.9706 25.0838C24.2795 24.7486 24.6409 24.6041 25.0417 24.8143C25.5871 25.0969 26.1128 25.0246 26.6254 24.7486C26.9013 24.5975 27.1708 24.4989 27.427 24.7486C27.7425 25.0509 27.6045 25.4517 27.519 25.7934C27.2562 26.7988 26.8093 27.7254 26.4676 28.6979C24.01 32.956 18.5757 34.1125 14.6593 31.1752C12.8456 29.815 11.0714 28.4022 9.27751 27.0091C7.65444 25.7474 6.05107 24.4595 4.41486 23.2241C3.17948 22.291 2.00324 21.3185 1.3987 19.7283C1.31984 19.5705 1.38555 19.3931 1.36584 19.2289C1.33299 18.9331 1.24099 18.6046 1.53669 18.4009C1.83896 18.1906 2.07552 18.368 2.29894 18.598C2.54865 18.8477 2.85092 18.9266 3.17291 18.8477C3.73146 18.7097 4.10601 18.966 4.34257 19.4983C4.46085 19.7677 4.66456 19.8531 4.89455 19.9254C4.382 19.8268 4.19144 19.3603 4.06659 18.92C3.93516 18.4666 4.29 18.2235 4.86827 18.322Z" fill="url(#paint0_linear_74_341)"/>
<path d="M26.6191 9.31268C26.9477 2.36697 34.3468 -1.75972 39.6826 2.13698C43.5793 4.98229 47.3314 8.08387 51.1427 11.0737C51.3135 11.2052 51.445 11.3892 51.5961 11.5469C50.7418 12.2171 49.7956 12.2697 48.9413 11.698C47.7191 10.8766 46.51 11.2249 45.2746 11.4746C42.9485 9.68066 40.6223 7.88017 38.2895 6.10595C35.3391 3.85862 31.8826 5.01514 30.5487 8.68185C30.5093 8.78698 30.4501 8.88555 30.4041 8.98412C29.7667 8.52414 29.7733 8.27443 30.5487 6.94706C30.2201 7.17705 29.977 7.27562 29.7273 7.33476C29.425 7.40704 29.287 7.71589 29.0702 7.90645C28.873 8.0773 28.6496 8.13644 28.4131 8.06416C27.7954 7.86702 27.4931 8.19558 27.3354 8.81327C27.2368 9.19439 27.0857 9.52295 26.6323 9.31268H26.6191Z" fill="url(#paint1_linear_74_341)"/>
<path d="M45.7426 27.3044C43.8699 28.8289 42.0431 30.4191 40.1177 31.8516C37.9427 33.4682 35.0251 33.041 33.1326 30.9974C31.3452 29.0589 30.8918 25.931 32.0812 23.6771C32.3638 23.5654 32.4689 23.2763 32.6266 23.0397C32.8829 22.6389 33.1786 22.3629 33.6649 22.5009C33.8751 22.56 34.0657 22.5009 34.2563 22.3629C35.1894 21.6927 36.589 22.1395 37.0293 23.2303C37.1476 23.5326 37.003 23.7231 36.8322 23.9071C36.2276 23.9071 35.8925 24.2817 35.7151 24.8862C35.0251 26.0822 35.0908 27.265 35.899 28.0929C36.6613 28.8815 37.6141 28.8552 38.6655 28.0141C40.2426 26.7524 41.8262 25.4908 43.4033 24.2225C43.8567 23.9728 44.159 24.1634 44.1064 24.6825C44.067 25.1031 44.205 25.1885 44.4744 25.3659C44.8884 25.6485 45.2827 25.9902 45.6178 26.3976C45.8346 26.667 46.0121 26.9496 45.7426 27.3044Z" fill="url(#paint2_linear_74_341)"/>
<path d="M18.4526 8.94494C19.1491 8.19583 19.5894 7.36129 19.1951 6.2442C18.722 4.90368 17.3552 4.40428 16.2249 5.21253C15.397 5.80393 14.6084 6.46762 13.8002 7.10502C13.2679 6.86189 12.7685 6.62532 12.1837 7.03931C11.888 7.24958 11.474 7.11816 11.1323 6.92103C10.5278 6.56618 10.4752 6.2442 10.9417 5.55423C10.7577 5.67908 10.646 5.83678 10.6066 6.04706C10.5015 6.63847 10.1729 6.8356 9.70636 6.56618C9.16752 6.25734 9.50265 5.8565 9.69322 5.49509C11.29 4.06258 12.9131 2.66292 14.661 1.48011C16.8032 0.0344583 19.6485 0.501007 21.4359 2.45264C23.1575 4.32542 23.6438 7.30872 22.599 9.5232C21.8039 9.53634 21.0876 9.96347 20.2991 10.0292C19.9836 10.0555 19.6617 10.0883 19.458 9.74005C19.274 9.43121 19.3462 9.14208 19.6091 8.84637C19.0243 9.62177 18.8403 9.62834 18.4526 8.95152V8.94494Z" fill="url(#paint3_linear_74_341)"/>
<path d="M16.1789 16.7513C17.572 17.8158 18.9848 18.8475 20.345 19.9646C21.1664 20.6348 21.2715 21.8636 20.6998 22.7442C20.1216 23.6313 19.0505 23.9204 18.2028 23.2765C15.6729 21.3445 13.1561 19.3863 10.6722 17.3887C9.77857 16.6724 10.0086 15.8576 11.2637 15.0231C11.3951 14.9311 11.5594 14.8982 11.6711 14.7734C12.637 13.6891 13.6424 14.0703 14.7398 14.5368C15.2918 14.7734 15.9357 14.3923 16.4877 14.09C16.7637 13.9388 16.9937 13.6826 17.2763 13.5446C17.8151 13.2883 18.1108 13.4986 18.1831 14.1623C17.7362 14.5762 17.2828 14.9837 16.836 15.3976C16.5797 15.4568 16.3826 15.6473 16.1657 15.7919C15.6466 16.127 15.6532 16.449 16.192 16.7513H16.1789Z" fill="url(#paint4_linear_74_341)"/>
<path d="M36.831 23.9069C36.6667 23.1775 35.7139 22.3496 35.0765 22.3693C34.9057 22.3693 34.7151 22.4021 34.7151 22.6058C34.7348 23.3549 34.3668 23.2104 33.966 23.0461C33.4206 22.8161 32.9475 22.8555 32.6123 23.4732C32.4875 23.7032 32.3101 23.7755 32.0801 23.6769C32.2772 22.9278 32.7175 22.3364 33.2366 21.8764C35.0108 20.2994 36.7982 18.7288 38.6709 17.2832C38.8418 17.0663 38.7432 16.7115 38.9798 16.5275C39.2886 16.291 39.2755 16.015 39.1704 15.6273C38.9272 14.7204 39.3938 14.2342 40.2152 14.4905C40.386 14.543 40.5371 14.6942 40.7211 14.543C41.2994 14.0896 41.6477 14.3787 41.8382 15.003C41.9894 15.4893 42.3639 15.5353 42.7056 15.601C43.2708 15.7127 43.6847 16.0281 44.0199 16.5407C44.309 16.9875 44.3221 17.3883 44.0199 17.8089C41.6608 19.8985 39.2886 21.9619 36.8179 23.8938L36.831 23.9069Z" fill="url(#paint5_linear_74_341)"/>
<path d="M45.7409 27.3045C45.4584 26.6868 44.9327 26.3319 44.499 25.8851C44.2493 25.6288 43.993 25.6288 43.7236 25.8457C43.5593 25.9771 43.3556 26.1611 43.1847 25.8851C43.0467 25.6617 43.1913 25.4448 43.3293 25.2608C43.4476 25.1031 43.5856 24.9717 43.6841 24.8009C43.8944 24.4395 43.7301 24.2752 43.4016 24.216C45.0575 22.7375 46.766 21.351 48.5271 20.0368C48.8885 20.0039 49.1119 19.6688 49.3419 19.4454C50.1304 18.6831 51.149 18.7226 52.0558 18.4006C52.7655 18.1509 53.3372 18.9131 53.2846 19.9119C52.9758 20.9567 52.4304 21.8439 51.655 22.4944C49.7033 24.124 47.7123 25.7011 45.7409 27.2979V27.3045Z" fill="url(#paint6_linear_74_341)"/>
<path d="M4.86865 18.3213C4.63209 18.4855 4.29696 18.5973 4.4021 19.0047C4.48753 19.3332 4.7438 19.5106 5.06579 19.4712C5.43378 19.4252 5.55863 19.5567 5.41406 19.9575C5.37463 20.0758 5.40092 20.1875 5.51263 20.24C5.69005 20.3255 6.00547 20.3518 5.7689 20.6737C5.57834 20.9432 5.28921 20.9169 5.09207 20.6606C4.71752 20.1678 3.86327 20.2466 3.82384 19.3464C3.82384 19.3069 3.56756 19.2084 3.48214 19.2544C2.7396 19.6355 2.1942 19.3004 1.69479 18.571C1.58965 19.0375 1.59622 19.4252 1.39252 19.7341C0.183423 17.3553 0.531692 13.8989 2.16791 11.9078C2.59503 11.5464 3.0353 11.2113 3.41643 10.771C4.11297 9.97591 5.9069 9.75906 6.978 10.2913C8.42365 11.0076 8.44993 11.2179 7.20799 12.4598C6.886 12.7424 6.57715 13.0446 6.24203 13.3141C4.38239 14.8057 4.11297 15.7651 4.86208 18.3213H4.86865Z" fill="url(#paint7_linear_74_341)"/>
<path d="M53.2921 19.9251C52.7993 18.8014 52.5627 18.6634 51.5376 19.0314C50.6768 19.3402 49.6583 19.1957 48.9815 20.0828C48.9223 20.1551 48.6858 20.0565 48.5346 20.0434C48.9026 19.5637 49.4283 19.268 49.7174 18.6897C50.5454 17.0469 50.1117 15.2924 48.5609 14.057C48.1206 13.3539 47.4372 13.0122 46.7867 12.6311C46.2413 12.3091 45.8667 11.7309 45.2819 11.4746C45.2293 11.1854 45.2622 10.9752 45.5907 10.9357C46.7867 10.8043 47.9695 10.4232 49.1129 11.3037C49.5006 11.5994 50.2037 12.1514 50.5323 10.8897C50.7097 11.606 51.1828 11.4943 51.5968 11.5534C53.7981 13.5511 54.5669 17.336 53.2921 19.9251Z" fill="url(#paint8_linear_74_341)"/>
<path d="M26.6187 9.31268C26.9341 9.07612 27.0129 8.68842 27.0261 8.32701C27.0589 7.49247 27.5189 7.37419 28.0906 7.53847C28.5637 7.66989 28.912 7.70274 29.0171 7.0522C29.0237 6.99963 29.0763 6.91421 29.1026 6.91421C29.9108 6.96678 30.3839 6.42137 30.8833 5.82997C31.0476 5.63941 31.2842 5.91539 31.179 6.19138C30.995 6.6645 30.995 7.22962 30.6665 7.62389C30.3314 8.0313 30.2459 8.465 30.3971 8.97755C30.0291 11.4812 29.694 13.9913 29.1617 16.4621C28.5834 16.3504 28.1103 16.5212 27.7029 17.0206C27.2101 17.6318 26.6581 17.1718 26.0798 16.9878C26.0864 17.8552 25.7907 18.5977 25.7184 19.3994C25.6724 19.9185 25.4753 20.3259 24.9102 19.8857C25.403 16.3438 25.9615 12.8217 26.6187 9.31268Z" fill="url(#paint9_linear_74_341)"/>
<path d="M24.9098 19.8857C25.061 19.8528 25.3041 19.7871 25.2778 19.636C25.1201 18.7489 25.7838 18.0063 25.613 17.1324C25.5604 16.8761 25.5407 16.6132 25.6524 16.3767C25.7247 16.2321 25.8167 16.0481 25.9349 15.9956C26.1387 15.9036 26.1452 16.173 26.2241 16.2978C26.6906 17.0009 27.0192 17.0469 27.604 16.495C27.742 16.3635 27.8866 16.2453 28.0311 16.127C28.7343 15.5159 28.754 15.5224 29.1482 16.4753C28.7408 19.7017 28.2414 22.9084 27.5975 26.0889C27.4069 27.0417 27.0258 27.9419 26.4475 28.7107C26.4475 27.6856 27.0849 26.8774 27.2295 25.8917C27.2623 25.6486 27.466 25.3989 27.3017 25.1623C27.1046 24.8666 26.8943 25.1623 26.6775 25.2083C25.9744 25.366 25.2713 25.8786 24.5681 25.1557C24.4499 25.0375 24.1673 25.1097 23.957 25.0966C24.2724 23.3618 24.5813 21.6336 24.8967 19.8988L24.9098 19.8857Z" fill="url(#paint10_linear_74_341)"/>
<path d="M18.1753 14.1689C17.8139 13.6629 17.4459 13.8863 17.091 14.1689C16.6508 14.5237 16.2368 14.9114 15.6257 14.8457C15.238 14.7997 15.2511 15.1282 15.284 15.4437C15.3168 15.7131 15.2971 16.0088 14.9948 16.0482C14.732 16.0811 14.64 15.7919 14.64 15.5751C14.6269 14.7931 14.2852 14.6288 13.674 14.872C13.582 14.9114 13.3981 14.9311 13.3783 14.8983C12.8001 13.6103 12.2612 14.8785 11.7093 14.9245C11.5581 14.9377 11.407 14.9968 11.2559 15.0362C13.5952 12.9269 15.9937 10.903 18.4513 8.95136C18.7338 9.12221 18.9704 9.0565 19.2332 8.83965C19.6275 8.52423 20.0678 8.29424 20.6658 8.3271C20.4883 8.74108 20.1072 8.58995 19.9429 8.82651C19.8181 9.0105 19.6538 9.19449 19.7392 9.43763C19.8378 9.72676 20.0875 9.66105 20.2781 9.58219C20.6526 9.42448 21.0206 9.37191 21.4149 9.43763C21.6514 9.47705 21.8091 9.33906 21.7763 9.03021C21.75 8.78051 21.4477 8.34024 22.0654 8.47824C22.4334 8.56366 22.8277 8.58995 22.532 9.20106C22.4991 9.27335 22.5714 9.41134 22.5977 9.52305C22.5385 9.63476 22.4794 9.7399 22.4268 9.85161C22.118 9.96989 22.2297 10.3247 22.0983 10.5481C21.0732 12.1318 19.6012 13.124 18.1753 14.1754V14.1689Z" fill="url(#paint11_linear_74_341)"/>
<path d="M44.0322 17.8226C44.0191 16.5675 43.4803 15.8775 42.5012 16.0024C41.6863 16.1075 41.6732 16.009 41.2658 14.6553C41.0226 14.8393 41.0292 15.2139 40.7532 15.3716C40.4444 15.5424 40.1815 15.7593 40.0895 15.1613C40.0501 14.905 39.9384 14.6947 39.669 14.8524C39.4719 14.9641 39.3076 15.2796 39.4521 15.4241C40.2933 16.3047 39.5113 16.5544 39.0184 16.9355C38.8936 17.0341 38.7885 17.1655 38.6702 17.2838C38.6833 16.9289 38.3876 16.8172 38.2365 16.5872C38.4073 16.4229 38.6307 16.2915 38.565 15.963C38.5913 15.8578 38.519 15.8907 38.519 15.9104C38.5782 16.3047 38.4402 16.5149 38.0525 16.4427C36.6988 15.5621 35.4569 14.5173 34.2018 13.4791C33.4132 12.8285 33.295 11.6194 33.8272 10.7586C34.4055 9.82551 35.4832 9.53638 36.3768 10.1935C37.9802 11.3763 39.5441 12.6314 41.1212 13.8602C42.0346 14.5764 42.9611 15.2861 43.8548 16.0287C44.5579 16.6069 44.5842 17.0866 44.0191 17.816L44.0322 17.8226Z" fill="url(#paint12_linear_74_341)"/>
<path d="M7.20928 12.4604C7.87954 11.2381 7.73498 10.8636 6.42075 10.5613C6.0659 10.4825 5.65849 10.1145 5.30365 10.673C5.16565 10.8899 4.92252 10.6139 4.73196 10.6139C4.25227 10.6139 3.74629 10.3576 3.49658 11.225C3.36516 11.6784 2.60948 11.639 2.17578 11.9084C2.37949 11.4878 2.68833 11.1724 3.01689 10.903C5.23137 9.08937 7.46556 7.29545 9.69318 5.49495C9.95603 5.67895 9.42376 6.21121 9.9626 6.26378C10.3832 6.3032 10.3437 5.86951 10.462 5.6198C10.7577 4.98897 11.3163 5.05468 11.8091 4.99554C11.9799 4.97583 12.1311 5.1664 12.1376 5.40296C12.1376 5.60009 12.0259 5.7118 11.8748 5.78408C11.8288 5.80379 11.7762 5.81037 11.7237 5.83008C11.4674 5.90894 11.1126 5.7578 10.9811 6.1455C10.9154 6.33606 11.106 6.4412 11.244 6.51348C11.5857 6.70404 11.9274 6.79604 12.2691 6.52005C13.0379 5.89579 13.3007 6.00093 13.8002 7.10488C11.6448 8.95138 9.46976 10.7716 7.20928 12.4669V12.4604Z" fill="url(#paint13_linear_74_341)"/>
<path d="M38.0598 16.4489C38.2176 16.3044 38.4935 16.1401 38.0598 16.0284C37.613 15.9166 37.5736 15.5881 37.7576 15.2661C37.9416 14.931 38.2767 14.931 38.5921 15.0952C39.0127 15.3187 38.9404 15.7655 38.9404 16.1532C38.9404 16.7183 38.4804 16.4621 38.2373 16.5935C38.1781 16.5475 38.119 16.5015 38.0533 16.4489H38.0598Z" fill="url(#paint14_linear_74_341)"/>
<path d="M35.7211 24.8801C35.7277 24.5055 35.4385 24.0783 35.8328 23.776C36.1811 23.5065 36.5163 23.73 36.8449 23.9074C36.5229 24.3083 36.1286 24.5975 35.7277 24.8801H35.7211Z" fill="url(#paint15_linear_74_341)"/>
<path d="M46.7773 12.6313C47.6316 12.7036 48.2625 13.1242 48.5517 14.0574C47.9471 13.6039 47.2965 13.2162 46.7773 12.6313Z" fill="url(#paint16_linear_74_341)"/>
<path d="M23.9711 25.0833C23.9054 26.2267 23.4388 26.9627 22.6699 27.1401C23.1759 26.5093 23.6294 25.839 23.9711 25.0833Z" fill="url(#paint17_linear_74_341)"/>
<path d="M16.1785 16.7517C15.8499 16.6795 15.6791 16.4692 15.6988 16.088C15.7185 15.72 15.9814 15.6345 16.2245 15.5425C16.4217 15.4702 16.6254 15.444 16.8292 15.3979C16.6189 15.5951 16.4151 15.812 16.1851 15.996C15.8565 16.2589 15.9485 16.4954 16.1851 16.7517H16.1785Z" fill="url(#paint18_linear_74_341)"/>
<path d="M22.0983 10.5418C22.1377 10.1278 21.4477 10.6732 21.6449 10.1409C21.7697 9.78605 22.0786 9.66776 22.4269 9.84519C22.4006 10.1278 22.2757 10.3512 22.0983 10.5418Z" fill="url(#paint19_linear_74_341)"/>
<path d="M14.1419 5.32397C14.4441 5.35683 14.5559 5.60655 14.615 5.88912C14.6544 6.0797 14.5756 6.25713 14.385 6.23084C14.1024 6.18484 13.8199 6.05341 13.7739 5.69855C13.7476 5.47512 13.9447 5.38312 14.1419 5.32397Z" fill="url(#paint20_linear_74_341)"/>
</mask>
<g mask="url(#mask0_74_341)">
<rect x="0.248047" y="0.13916" width="53.8835" height="32.8558" fill="white"/>
</g>
</g>
<path opacity="0.9" d="M69.1392 27.9698C67.7333 27.9698 66.47 27.7253 65.3493 27.2363C64.249 26.7269 63.383 26.0341 62.7514 25.158C62.1198 24.2614 61.7937 23.2325 61.7734 22.071H64.738C64.8399 23.0695 65.2474 23.915 65.9606 24.6078C66.6941 25.2802 67.7536 25.6164 69.1392 25.6164C70.4636 25.6164 71.5028 25.2904 72.2567 24.6384C73.0309 23.966 73.4181 23.1102 73.4181 22.071C73.4181 21.256 73.1939 20.5938 72.7457 20.0844C72.2974 19.575 71.7371 19.1879 71.0647 18.923C70.3923 18.6581 69.4856 18.3729 68.3445 18.0672C66.9386 17.7005 65.8078 17.3337 64.952 16.9669C64.1166 16.6002 63.3932 16.0297 62.782 15.2554C62.1911 14.4607 61.8956 13.4012 61.8956 12.0768C61.8956 10.9154 62.1911 9.8864 62.782 8.98987C63.3729 8.09334 64.1981 7.40056 65.2576 6.91155C66.3375 6.42253 67.5702 6.17802 68.9558 6.17802C70.9526 6.17802 72.5827 6.67723 73.846 7.67564C75.1296 8.67404 75.853 9.99846 76.016 11.6489H72.9596C72.8577 10.8339 72.4298 10.1207 71.6759 9.50945C70.922 8.8778 69.9236 8.56198 68.6807 8.56198C67.5193 8.56198 66.5718 8.86761 65.8383 9.47888C65.1048 10.0698 64.738 10.9052 64.738 11.9851C64.738 12.7594 64.952 13.391 65.3799 13.88C65.8281 14.369 66.3681 14.746 66.9997 15.0109C67.6518 15.2554 68.5585 15.5406 69.7199 15.8667C71.1258 16.2538 72.2567 16.6409 73.1124 17.0281C73.9682 17.3948 74.7017 17.9755 75.313 18.7702C75.9243 19.5445 76.2299 20.604 76.2299 21.9488C76.2299 22.988 75.9548 23.966 75.4047 24.8829C74.8546 25.7998 74.0395 26.5435 72.9596 27.114C71.8797 27.6845 70.6062 27.9698 69.1392 27.9698ZM88.85 28.0309C87.2811 28.0309 85.8548 27.6744 84.5711 26.9612C83.3078 26.2481 82.3094 25.2395 81.5759 23.9354C80.8627 22.611 80.5062 21.0828 80.5062 19.3509C80.5062 17.6393 80.8729 16.1315 81.6065 14.8275C82.3604 13.5031 83.3791 12.4945 84.6628 11.8017C85.9465 11.0886 87.383 10.732 88.9723 10.732C90.5616 10.732 91.998 11.0886 93.2817 11.8017C94.5654 12.4945 95.574 13.4929 96.3075 14.7969C97.0614 16.101 97.4384 17.619 97.4384 19.3509C97.4384 21.0828 97.0512 22.611 96.2769 23.9354C95.523 25.2395 94.4941 26.2481 93.19 26.9612C91.886 27.6744 90.4393 28.0309 88.85 28.0309ZM88.85 25.5859C89.8484 25.5859 90.7857 25.3515 91.6619 24.8829C92.538 24.4142 93.241 23.7113 93.7707 22.774C94.3209 21.8367 94.5959 20.6957 94.5959 19.3509C94.5959 18.0061 94.3311 16.8651 93.8013 15.9278C93.2715 14.9905 92.5788 14.2977 91.723 13.8495C90.8672 13.3808 89.9401 13.1465 88.9417 13.1465C87.9229 13.1465 86.9856 13.3808 86.1299 13.8495C85.2945 14.2977 84.6221 14.9905 84.1127 15.9278C83.6033 16.8651 83.3486 18.0061 83.3486 19.3509C83.3486 20.7161 83.5931 21.8673 84.0821 22.8046C84.5915 23.7419 85.2639 24.4448 86.0993 24.9135C86.9347 25.3617 87.8516 25.5859 88.85 25.5859ZM109.133 13.2993H105.619V27.7559H102.837V13.2993H100.667V11.0071H102.837V9.81508C102.837 7.94052 103.316 6.57535 104.274 5.71957C105.252 4.84342 106.811 4.40534 108.95 4.40534V6.72817C107.728 6.72817 106.862 6.97268 106.352 7.46169C105.863 7.93033 105.619 8.71479 105.619 9.81508V11.0071H109.133V13.2993ZM116.991 13.2993V23.1713C116.991 23.9864 117.165 24.5671 117.511 24.9135C117.857 25.2395 118.458 25.4025 119.314 25.4025H121.362V27.7559H118.856C117.307 27.7559 116.146 27.3993 115.371 26.6861C114.597 25.973 114.21 24.8014 114.21 23.1713V13.2993H112.04V11.0071H114.21V6.78929H116.991V11.0071H121.362V13.2993H116.991ZM148.266 11.0071L143.039 27.7559H140.166L136.132 14.4607L132.098 27.7559H129.225L123.968 11.0071H126.81L130.661 25.0663L134.818 11.0071H137.66L141.725 25.0968L145.515 11.0071H148.266ZM151.209 19.3203C151.209 17.6088 151.556 16.1112 152.249 14.8275C152.941 13.5235 153.889 12.5149 155.091 11.8017C156.313 11.0886 157.668 10.732 159.156 10.732C160.623 10.732 161.896 11.0478 162.976 11.6795C164.056 12.3111 164.861 13.1058 165.391 14.0634V11.0071H168.203V27.7559H165.391V24.6384C164.841 25.6164 164.015 26.4314 162.915 27.0835C161.835 27.7151 160.572 28.0309 159.125 28.0309C157.638 28.0309 156.293 27.6642 155.091 26.9306C153.889 26.1971 152.941 25.1681 152.249 23.8437C151.556 22.5193 151.209 21.0115 151.209 19.3203ZM165.391 19.3509C165.391 18.0876 165.136 16.9873 164.627 16.05C164.117 15.1128 163.425 14.3996 162.548 13.9106C161.693 13.4012 160.745 13.1465 159.706 13.1465C158.667 13.1465 157.719 13.391 156.864 13.88C156.008 14.369 155.325 15.0822 154.816 16.0195C154.306 16.9568 154.052 18.057 154.052 19.3203C154.052 20.604 154.306 21.7247 154.816 22.6823C155.325 23.6196 156.008 24.3429 156.864 24.8523C157.719 25.3413 158.667 25.5859 159.706 25.5859C160.745 25.5859 161.693 25.3413 162.548 24.8523C163.425 24.3429 164.117 23.6196 164.627 22.6823C165.136 21.7247 165.391 20.6142 165.391 19.3509ZM188.551 11.0071L178.465 35.6412H175.592L178.893 27.5725L172.139 11.0071H175.226L180.483 24.5773L185.678 11.0071H188.551Z" fill="white"/>
</g>
<defs>
<linearGradient id="paint0_linear_74_341" x1="15.0753" y1="21.1854" x2="2.02571" y2="25.8984" gradientUnits="userSpaceOnUse">
<stop stop-color="#2AAB4E"/>
<stop offset="0.569476" stop-color="#3C88EE"/>
</linearGradient>
<linearGradient id="paint1_linear_74_341" x1="39.6778" y1="2.91185" x2="27.8894" y2="8.0304" gradientUnits="userSpaceOnUse">
<stop stop-color="#2AAB4E"/>
<stop offset="0.569476" stop-color="#3C88EE"/>
</linearGradient>
<linearGradient id="paint2_linear_74_341" x1="38.9795" y1="24.1937" x2="31.408" y2="26.2145" gradientUnits="userSpaceOnUse">
<stop stop-color="#2AAB4E"/>
<stop offset="0.569476" stop-color="#3C88EE"/>
</linearGradient>
<linearGradient id="paint3_linear_74_341" x1="16.5935" y1="2.50722" x2="9.4909" y2="4.57221" gradientUnits="userSpaceOnUse">
<stop stop-color="#2AAB4E"/>
<stop offset="0.569476" stop-color="#3C88EE"/>
</linearGradient>
<linearGradient id="paint4_linear_74_341" x1="15.8454" y1="15.4649" x2="9.98386" y2="16.7173" gradientUnits="userSpaceOnUse">
<stop stop-color="#2AAB4E"/>
<stop offset="0.569476" stop-color="#3C88EE"/>
</linearGradient>
<linearGradient id="paint5_linear_74_341" x1="38.4385" y1="16.2286" x2="32.0261" y2="17.8493" gradientUnits="userSpaceOnUse">
<stop stop-color="#2AAB4E"/>
<stop offset="0.569476" stop-color="#3C88EE"/>
</linearGradient>
<linearGradient id="paint6_linear_74_341" x1="48.4403" y1="20.1334" x2="43.0187" y2="21.359" gradientUnits="userSpaceOnUse">
<stop stop-color="#2AAB4E"/>
<stop offset="0.569476" stop-color="#3C88EE"/>
</linearGradient>
<linearGradient id="paint7_linear_74_341" x1="4.55714" y1="12.1607" x2="0.464527" y2="12.7183" gradientUnits="userSpaceOnUse">
<stop stop-color="#2AAB4E"/>
<stop offset="0.569476" stop-color="#3C88EE"/>
</linearGradient>
<linearGradient id="paint8_linear_74_341" x1="49.7825" y1="12.6038" x2="45.0906" y2="13.4664" gradientUnits="userSpaceOnUse">
<stop stop-color="#2AAB4E"/>
<stop offset="0.569476" stop-color="#3C88EE"/>
</linearGradient>
<linearGradient id="paint9_linear_74_341" x1="28.2013" y1="8.61249" x2="24.6971" y2="8.91964" gradientUnits="userSpaceOnUse">
<stop stop-color="#2AAB4E"/>
<stop offset="0.569476" stop-color="#3C88EE"/>
</linearGradient>
<linearGradient id="paint10_linear_74_341" x1="26.6711" y1="18.2936" x2="23.7774" y2="18.5237" gradientUnits="userSpaceOnUse">
<stop stop-color="#2AAB4E"/>
<stop offset="0.569476" stop-color="#3C88EE"/>
</linearGradient>
<linearGradient id="paint11_linear_74_341" x1="17.2055" y1="9.86093" x2="11.3279" y2="11.5853" gradientUnits="userSpaceOnUse">
<stop stop-color="#2AAB4E"/>
<stop offset="0.569476" stop-color="#3C88EE"/>
</linearGradient>
<linearGradient id="paint12_linear_74_341" x1="39.2077" y1="11.4258" x2="33.5083" y2="12.9774" gradientUnits="userSpaceOnUse">
<stop stop-color="#2AAB4E"/>
<stop offset="0.569476" stop-color="#3C88EE"/>
</linearGradient>
<linearGradient id="paint13_linear_74_341" x1="8.25332" y1="6.48057" x2="2.30385" y2="8.32411" gradientUnits="userSpaceOnUse">
<stop stop-color="#2AAB4E"/>
<stop offset="0.569476" stop-color="#3C88EE"/>
</linearGradient>
<linearGradient id="paint14_linear_74_341" x1="38.3292" y1="15.3072" x2="37.6232" y2="15.4202" gradientUnits="userSpaceOnUse">
<stop stop-color="#2AAB4E"/>
<stop offset="0.569476" stop-color="#3C88EE"/>
</linearGradient>
<linearGradient id="paint15_linear_74_341" x1="36.2628" y1="23.8954" x2="35.6042" y2="24.0256" gradientUnits="userSpaceOnUse">
<stop stop-color="#2AAB4E"/>
<stop offset="0.569476" stop-color="#3C88EE"/>
</linearGradient>
<linearGradient id="paint16_linear_74_341" x1="47.705" y1="12.915" x2="46.7673" y2="13.1474" gradientUnits="userSpaceOnUse">
<stop stop-color="#2AAB4E"/>
<stop offset="0.569476" stop-color="#3C88EE"/>
</linearGradient>
<linearGradient id="paint17_linear_74_341" x1="23.3502" y1="25.4924" x2="22.6317" y2="25.5829" gradientUnits="userSpaceOnUse">
<stop stop-color="#2AAB4E"/>
<stop offset="0.569476" stop-color="#3C88EE"/>
</linearGradient>
<linearGradient id="paint18_linear_74_341" x1="16.289" y1="15.6672" x2="15.6712" y2="15.7701" gradientUnits="userSpaceOnUse">
<stop stop-color="#2AAB4E"/>
<stop offset="0.569476" stop-color="#3C88EE"/>
</linearGradient>
<linearGradient id="paint19_linear_74_341" x1="22.0368" y1="9.91844" x2="21.5975" y2="10.0104" gradientUnits="userSpaceOnUse">
<stop stop-color="#2AAB4E"/>
<stop offset="0.569476" stop-color="#3C88EE"/>
</linearGradient>
<linearGradient id="paint20_linear_74_341" x1="14.2177" y1="5.50488" x2="13.7551" y2="5.59134" gradientUnits="userSpaceOnUse">
<stop stop-color="#2AAB4E"/>
<stop offset="0.569476" stop-color="#3C88EE"/>
</linearGradient>
<clipPath id="clip0_74_341">
<rect width="189.615" height="34" fill="white"/>
</clipPath>
</defs>
</svg>
